{"title":"Ashes.and.Blood.[Cendres.et.Sang].2009.DVDRip.XviD.HORiZON-ArtSu","uid":8284303,"size":1521883443,"categoryP":"video","categoryS":"movies","magnet":"?xt=urn:btih:9fcaf214049c6e554f960f3c34d2fe937b730848&amp;dn=Ashes.and.Blood.%5BCendres.et.Sang%5D.2009.DVDRip.XviD.HORiZON-ArtSu&amp;tr=udp%3A%2F%2Ftracker.openbittorrent.com%3A80&amp;tr=udp%3A%2F%2Fopen.demonii.com%3A1337&amp;tr=udp%3A%2F%2Ftracker.coppersurfer.tk%3A6969&amp;tr=udp%3A%2F%2Fexodus.desync.com%3A6969","seeders":4,"leechers":1,"uploader":"lletaif","files":3,"time":1363908120,"description":"Title:\nAshes and Blood Aka Cendres et Sang\n\nCountry:\nFrance/2009\n\nLanguage:\nFrench\n\nSubtitle:\nEnglish (srt)\nPortuguese PT (srt)\n\nDirector:\nFanny Ardant\n\nWriters:\nIsmail Kadare (novel), Fanny Ardant (screenplay)\n\nStars:\nRonit Elkabetz, Abraham Belaga, Marc Ruchmann \n\nSynopsis:\nExiled from her country since her husband's murder ten years earlier, Judith lives in Marseille with her three children. After having refused to see her family for years, Judith, in spite of her fears and secrets, allows herself to be influenced by her children's wishes and accepts an invitation to their cousin's wedding. They set off to spend a summer in the old country, discovering their roots and their past. But Judith's return revives old hatreds between rival clans. The spiral of violence is inexorably set in motion, blood will tell... \n\nTrivia:\nOfficial Selection Cannes Film Festival 2009\n\nImdb: &lt;a href=&quot;\nhttp://www.imdb.com/title/tt1236182&quot; rel=&quot;nofollow&quot; target=&quot;_NEW&quot;&gt;\nhttp://www.imdb.com/title/tt1236182&lt;/a&gt;\n\nTrailer: &lt;a href=&quot;\nhttp://www.cine.gr/film.asp?id=714055&amp;page=8&quot; rel=&quot;nofollow&quot; target=&quot;_NEW&quot;&gt;\nhttp://www.cine.gr/film.asp?id=714055&amp;page=8&lt;/a&gt;\n\nMedia Info:\n\nGeneral\nComplete name                            : Ashes.and.Blood.[Cendres.et.Sang].2009.DVDRip.XviD.HORiZON-ArtSubs\nFormat                                   : AVI\nFormat/Info                              : Audio Video Interleave\nFormat profile                           : OpenDML\nFile size                                : 1.42 GiB\nDuration                                 : 1h 33mn\nOverall bit rate                         : 2 161 Kbps\nWriting application                      : Lavf52.94.0\n\nVideo\nID                                       : 0\nFormat                                   : MPEG-4 Visual\nFormat profile                           : Simple@L3\nFormat settings, BVOP                    : No\nFormat settings, QPel                    : No\nFormat settings, GMC                     : No warppoints\nFormat settings, Matrix                  : Default (H.263)\nCodec ID                                 : XVID\nCodec ID/Hint                            : XviD\nDuration                                 : 1h 33mn\nBit rate                                 : 1 925 Kbps\nWidth                                    : 1 024 pixels\nHeight                                   : 576 pixels\nDisplay aspect ratio                     : 16:9\nFrame rate                               : 25.000 fps\nColor space                              : YUV\nChroma subsampling                       : 4:2:0\nBit depth                                : 8 bits\nScan type                                : Progressive\nCompression mode                         : Lossy\nBits/(Pixel*Frame)                       : 0.131\nStream size                              : 1.26 GiB (89%)\nWriting library                          : XviD 1.2.1 (UTC 2008-12-04)\n\nAudio\nID                                       : 1\nFormat                                   : AC-3\nFormat/Info                              : Audio Coding 3\nMode extension                           : CM (complete main)\nFormat settings, Endianness              : Big\nCodec ID                                 : 2000\nDuration                                 : 1h 33mn\nBit rate mode                            : Constant\nBit rate                                 : 224 Kbps\nChannel(s)                               : 2 channels\nChannel positions                        : Front: L R\nSampling rate                            : 48.0 KHz\nBit depth                                : 16 bits\nCompression mode                         : Lossy\nStream size                              : 150 MiB (10%)\nAlignment                                : Aligned on interleaves\nInterleave, duration                     : 32 ms (0.80 video frame)\n\n","torrent":{"xt":"urn:btih:9fcaf214049c6e554f960f3c34d2fe937b730848","amp;dn":"Ashes.and.Blood.%5BCendres.et.Sang%5D.2009.DVDRip.XviD.HORiZON-ArtSu","amp;tr":["udp%3A%2F%2Ftracker.openbittorrent.com%3A80","udp%3A%2F%2Fopen.demonii.com%3A1337","udp%3A%2F%2Ftracker.coppersurfer.tk%3A6969","udp%3A%2F%2Fexodus.desync.com%3A6969"],"infoHash":"9fcaf214049c6e554f960f3c34d2fe937b730848","infoHashBuffer":{"type":"Buffer","data":[159,202,242,20,4,156,110,85,79,150,15,60,52,210,254,147,123,115,8,72]},"announce":[],"urlList":[]}}